<svg width="24" height="24" viewBox="0 0 24 24" fill="none" xmlns="http://www.w3.org/2000/svg">
  <g fill="#3B82F6">
    <rect x="10.6" y="1.8" width="2.8" height="4.8" rx="0.8"/>
    <rect x="10.6" y="1.8" width="2.8" height="4.8" rx="0.8" transform="rotate(45 12 12)"/>
    <rect x="10.6" y="1.8" width="2.8" height="4.8" rx="0.8" transform="rotate(90 12 12)"/>
    <rect x="10.6" y="1.8" width="2.8" height="4.8" rx="0.8" transform="rotate(135 12 12)"/>
    <rect x="10.6" y="1.8" width="2.8" height="4.8" rx="0.8" transform="rotate(180 12 12)"/>
    <rect x="10.6" y="1.8" width="2.8" height="4.8" rx="0.8" transform="rotate(225 12 12)"/>
    <rect x="10.6" y="1.8" width="2.8" height="4.8" rx="0.8" transform="rotate(270 12 12)"/>
    <rect x="10.6" y="1.8" width="2.8" height="4.8" rx="0.8" transform="rotate(315 12 12)"/>
    <circle cx="12" cy="12" r="6.4"/>
  </g>
  <circle cx="12" cy="12" r="2.7" fill="#BFDBFE"/>
</svg>
